<svg xmlns="http://www.w3.org/2000/svg" width="1240" height="1240"><path d="M594.971 9.25c-.538 1.238-2.563 4.275-4.499 6.75-1.936 2.475-3.786 5.288-4.112 6.25-.326.962-1.032 1.75-1.568 1.75s-6.366 5.4-12.955 12-12.516 12-13.17 12c-.654 0-2.984 1.566-5.178 3.481-2.194 1.914-4.439 3.498-4.989 3.518-.55.021-2.35 2.163-4 4.761-1.65 2.598-3.848 4.884-4.884 5.081-1.036.196-3.736 2.262-6 4.59s-5.916 5.379-8.116 6.781c-2.2 1.402-5.091 3.728-6.424 5.168-1.334 1.441-2.969 2.62-3.634 2.62s-2.835 1.8-4.823 4c-1.988 2.2-4.315 4-5.173 4-1.557 0-11.446 9.599-11.446 11.111 0 .439-1.012 1.859-2.25 3.157-2.397 2.512-5.75 8.259-5.75 9.855 0 .528-.9 1.927-2 3.107-1.671 1.794-2.005 3.557-2.032 10.709-.022 5.938-.481 9.156-1.5 10.502-1.001 1.324-1.468 4.436-1.468 9.785 0 8.626-.858 10.697-6.968 16.806-4.696 4.697-8.425 6.968-11.438 6.968-1.362 0-2.754.45-3.094 1-.34.55-2.134 1-3.988 1-1.853 0-4.044.675-4.869 1.5-.825.825-2.845 1.5-4.488 1.5-1.644 0-3.138.337-3.322.75-1.633 3.674-18.91 6.097-20.165 2.828-.3-.783-1.586-1.57-2.857-1.75-1.506-.214-2.422-1.111-2.631-2.578-.179-1.26-1.021-2.25-1.916-2.25-.878 0-6.012-4.5-11.409-10-5.397-5.5-10.578-10-11.513-10-2.452 0-8.342-2.26-8.342-3.201 0-.439-2.406-.799-5.346-.799-2.941 0-6.725-.688-8.41-1.528-2.671-1.333-11.416-1.492-68.403-1.25l-65.341.278-3.154 2.25c-1.735 1.237-3.611 2.25-4.169 2.25-1.361 0-7.591 3.305-8.01 4.25-.184.412-1.118.75-2.076.75s-2.76 1.083-4.003 2.406c-2.944 3.134-8.079 13.479-8.084 16.285-.002 1.205-.454 2.469-1.004 2.809-.55.34-1 2.841-1 5.559s-.45 4.941-1 4.941-1 2.039-1 4.531c0 3.106-.472 4.713-1.5 5.107-1.158.445-1.5 2.375-1.5 8.469 0 4.595-.418 7.893-1 7.893-.55 0-1 1.762-1 3.917 0 2.154-.504 4.084-1.121 4.29-.616.205-1.229 2.296-1.361 4.645-.133 2.349-.754 4.784-1.38 5.41-.626.626-1.138 3.721-1.138 6.879 0 3.158-.45 6.019-1 6.359-.55.34-1 3.205-1 6.368 0 3.507-.573 6.507-1.468 7.691-.87 1.149-1.481 4.205-1.5 7.491-.018 3.053-.456 5.978-.974 6.5-.517.523-1.175 6.35-1.461 12.95-.286 6.6-.799 15.262-1.14 19.25-.421 4.916-.273 7.25.461 7.25.595 0 1.082 1.559 1.082 3.465 0 3.03 3.598 11.248 6.124 13.985.482.522.876 1.76.876 2.75s.45 1.8 1 1.8 1 .845 1 1.878c0 1.032.675 2.437 1.5 3.122s1.5 1.895 1.5 2.69c0 .794 1.575 2.93 3.5 4.745 1.925 1.816 3.5 3.819 3.5 4.453 0 .633 1.125 2.934 2.5 5.112 2.843 4.504 3.304 10.555 1.032 13.559-.808 1.067-1.483 2.659-1.5 3.536-.018.877-.863 2.347-1.879 3.267-1.016.919-2.704 3.459-3.75 5.643-1.047 2.185-2.241 3.977-2.653 3.984-.412.006-.75.707-.75 1.559 0 .851-1.125 2.59-2.5 3.864-1.375 1.275-2.5 3.027-2.5 3.894s-.45 1.854-1 2.194c-.55.34-1 1.483-1 2.54 0 1.216-.918 2.152-2.5 2.549-1.375.345-2.5.958-2.5 1.36 0 .403-2.198 1.93-4.885 3.392-4.777 2.6-5.286 2.659-22.941 2.659-10.959 0-18.299.393-18.674 1-.34.55-2.601 1-5.024 1-3.269 0-7.05 1.301-14.657 5.041-5.638 2.772-10.543 5.513-10.9 6.09-.357.578-1.545 1.572-2.641 2.209-5.089 2.963-10.072 6.749-13.224 10.051-1.896 1.985-4.032 3.609-4.748 3.609-.716 0-2.971 1.575-5.012 3.5-2.041 1.925-4.212 3.5-4.825 3.5-.613 0-5.285 4.387-10.382 9.75-5.098 5.363-10.631 10.464-12.296 11.337-1.665.873-6.373 4.698-10.461 8.5C29.048 492.87 27.759 494 26.882 494c-.485 0-.882.45-.882 1s-.822 1-1.826 1-2.882 1.125-4.174 2.5c-1.431 1.523-3.453 2.5-5.174 2.5-1.554 0-2.829.337-2.832.75-.008.959-5.753 4.25-7.42 4.25-.695 0-2.009.823-2.919 1.829C.231 509.402 0 512.452 0 529.675v20.017l5.25 5.482c2.888 3.014 6.6 7.846 8.25 10.737 1.65 2.891 3.562 5.862 4.25 6.601.687.74 1.25 1.771 1.25 2.291s2.241 3.119 4.98 5.776c2.739 2.657 6.088 7.171 7.442 10.031 1.354 2.86 2.938 5.495 3.52 5.854.582.36 1.058 1.718 1.058 3.018 0 1.301 1.025 3.637 2.278 5.191 1.253 1.555 3.615 5.45 5.25 8.655 1.635 3.205 3.76 6.674 4.722 7.708.963 1.034 1.75 2.526 1.75 3.315 0 .789.675 1.694 1.5 2.011.825.316 1.533 1.377 1.573 2.357.04.979.934 3.131 1.985 4.781 1.052 1.65 2.341 3.969 2.865 5.153.525 1.184 1.42 2.441 1.991 2.794.57.352 2.654 3.532 4.63 7.065 1.976 3.534 5.054 7.901 6.841 9.706 1.786 1.805 3.541 4.07 3.9 5.032.359.962 1.245 1.75 1.97 1.75.725 0 3.326 1.781 5.781 3.958 2.455 2.177 5.814 4.471 7.464 5.098 1.65.628 5.256 2.222 8.014 3.542 2.758 1.321 6.444 2.402 8.191 2.402 1.747 0 3.441.427 3.763.949.323.521 3.325 1.759 6.673 2.75 4.823 1.427 7.456 3.073 12.69 7.933 6.484 6.02 6.617 6.246 7.328 12.5 1.231 10.829 2.657 18.084 3.773 19.2.587.587 1.068 2.082 1.068 3.321 0 1.239.528 3.411 1.173 4.827.897 1.969.897 2.85 0 3.747-.645.645-1.173 3.03-1.173 5.3 0 3.728-.541 4.627-5.597 9.3-3.078 2.845-5.848 5.173-6.155 5.173-.308 0-2.034 1.125-3.837 2.5-1.803 1.375-3.688 2.5-4.189 2.5-.502 0-1.716.889-2.699 1.974-.983 1.086-2.706 2.267-3.829 2.623-2.364.75-11.694 10.18-11.694 11.819 0 .608-1.022 2.225-2.272 3.594-2.193 2.404-4.279 9.164-5.396 17.49-.295 2.2-.941 4.427-1.434 4.95-.494.522-.898 4.685-.898 9.25 0 4.867-.414 8.3-1 8.3-.563 0-1 2.81-1 6.429 0 4.381-.478 6.906-1.5 7.928-.89.89-1.5 3.335-1.5 6.013 0 2.481-.45 4.79-1 5.13-.55.34-1.014 3.404-1.032 6.809-.02 3.851-.587 6.925-1.5 8.132-.807 1.068-1.468 2.98-1.468 4.25S83.55 867 83 867s-1 1.773-1 3.941-.45 4.219-1 4.559c-.55.34-1 2.809-1 5.488 0 2.995-.577 5.447-1.5 6.369-.825.825-1.5 2.631-1.5 4.013 0 1.381-.45 2.79-1 3.13-.55.34-1 1.89-1 3.445 0 1.554-.672 4.115-1.494 5.691-.821 1.575-1.496 5.451-1.5 8.614-.003 3.163-.456 5.75-1.006 5.75-1.327 0-1.327 19.68 0 20.5.55.34 1 1.288 1 2.107 0 .819 1.125 2.531 2.5 3.805 1.375 1.275 2.5 2.756 2.5 3.292 0 3.011 17.461 15.289 21.75 15.293 1.237.002 2.25.453 2.25 1.003 0 .55.845 1 1.878 1 1.032 0 2.437.675 3.122 1.5s2.321 1.5 3.636 1.5 3.173.384 4.128.853c5.378 2.642 9.07 4.054 11.736 4.491 1.65.27 4.8 1.016 7 1.657s6.025 1.527 8.5 1.968c2.475.441 8.1 1.978 12.5 3.414 4.4 1.437 9.575 3.086 11.5 3.665 3.152.947 6.293 2.222 18.151 7.368 2.008.871 4.344 1.584 5.191 1.584.847 0 1.818.45 2.158 1 .34.55 1.506 1 2.59 1 1.085 0 2.232.675 2.548 1.5.317.825 1.373 1.5 2.347 1.5.973 0 2.306.646 2.962 1.436.655.789 2.623 1.741 4.372 2.115 1.75.374 3.709 1.105 4.355 1.623 1.017.819 12.957 2.029 18.826 1.909 1.1-.022 4.603-.056 7.784-.075 3.181-.018 6.556-.425 7.5-.904.944-.479 2.841-1.337 4.216-1.907 1.375-.569 5.2-2.271 8.5-3.781 6.818-3.121 11.67-4.405 19.326-5.116 8.007-.743 11.695.325 16.319 4.723 2.272 2.161 4.856 4.164 5.743 4.451.887.286 3.05 1.872 4.808 3.523 1.757 1.652 3.717 3.003 4.355 3.003.638 0 2.497 1.125 4.131 2.5 1.634 1.375 3.499 2.516 4.145 2.536 1.451.046 6.673 6.794 6.673 8.625 0 .736.45 1.339 1 1.339 1.33 0 1.33 20.678 0 21.5-.55.34-1 1.886-1 3.437 0 1.55-.675 3.378-1.5 4.063-1.044.866-1.5 3.167-1.5 7.563 0 3.476-.45 6.597-1 6.937-1.3.803-1.3 7.197 0 8 .55.34 1.014 2.954 1.032 5.809.018 2.97.66 6.022 1.5 7.132.807 1.068 1.468 2.612 1.468 3.432 0 .819 2.096 5.796 4.659 11.058 4.201 8.63 6.651 12.542 10.69 17.069.736.825 2.605 3.862 4.153 6.75 1.549 2.887 3.194 5.25 3.657 5.25.463 0 .841.822.841 1.826s1.125 2.882 2.5 4.174c1.375 1.292 2.5 2.876 2.5 3.521 0 1.753 2.837 7.099 4.5 8.479 1.864 1.547 4.5 6.807 4.5 8.979 0 .92 1.125 2.729 2.5 4.021 1.375 1.292 2.5 3.17 2.5 4.174 0 1.004.441 1.826.981 1.826.539 0 1.259 1.107 1.598 2.459.34 1.352 1.291 3.018 2.114 3.701.823.683 3.014 4.527 4.868 8.541 1.854 4.015 3.837 7.299 4.405 7.299.569 0 1.034.59 1.034 1.312 0 1.703 3.716 9.394 4.889 10.119.497.308 1.9 2.474 3.117 4.814s2.546 4.48 2.954 4.755c.408.275 2.007 2.525 3.554 5 3.061 4.899 8.249 9.959 10.236 9.984.688.009 1.25.466 1.25 1.016 0 .592 3.655 1 8.965 1 7.76 0 9.1-.253 9.974-1.885.555-1.037 2.708-2.777 4.785-3.865a334.858 334.858 0 007.556-4.115c2.08-1.174 4.837-2.135 6.128-2.135 1.291 0 2.907-.675 3.592-1.5s2.484-1.5 3.998-1.5c1.515 0 7.941-2.475 14.281-5.5 6.34-3.025 12.384-5.5 13.433-5.5 1.048 0 4.521-1.575 7.718-3.5s6.406-3.5 7.132-3.5 1.591-.438 1.921-.973c.58-.938 2.408-1.847 11.017-5.476 2.2-.927 4.9-2.076 6-2.553 1.1-.476 3.8-1.401 6-2.055 2.2-.654 4.781-1.583 5.736-2.066.955-.482 2.841-.877 4.191-.877 1.35 0 2.705-.405 3.011-.9.306-.494 2.92-1.456 5.809-2.137 7.146-1.685 13.416-4.719 15.669-7.584 1.03-1.308 2.497-2.379 3.262-2.379 1.707 0 11.822-10.088 11.822-11.79 0-.675 1.35-3.091 3-5.369 1.65-2.277 3-5.172 3-6.432 0-1.26.45-2.569 1-2.909.55-.34 1-1.476 1-2.524s.885-2.379 1.966-2.958c1.081-.579 2.424-2.753 2.984-4.833 1.426-5.297 6.946-9.79 15.55-12.658 2.646-.883 35.435-.862 38 .023 9.308 3.215 13.533 6.7 15.477 12.77.674 2.101 1.854 4.062 2.624 4.357.769.295 1.399 1.362 1.399 2.371s.45 2.112 1 2.452c.55.34 1 1.5 1 2.578 0 5.031 12.048 21.922 15.637 21.922.671 0 1.825.605 2.564 1.344 4.375 4.374 20.359 13.179 25.799 14.209 3.711.703 17.72 5.885 23.236 8.594.955.469 2.649.853 3.764.853 1.115 0 2.809.395 3.764.878 4.719 2.386 9.513 4.122 11.384 4.122 1.144 0 3.716.873 5.716 1.941 2 1.067 8.811 4.359 15.136 7.315 6.325 2.956 12.196 6.02 13.046 6.809 2.599 2.413 7.983 4.935 10.535 4.935 1.33 0 2.419.45 2.419 1s.873 1 1.941 1 2.201.422 2.52.937c.861 1.392 6.574 4.063 8.693 4.063 1.015 0 1.846.401 1.846.892 0 .49 1.125 1.174 2.5 1.519s2.5 1.069 2.5 1.608c0 .565 3.62.981 8.528.981h8.529l7.471-7.693c4.11-4.231 7.472-8.029 7.472-8.439 0-.411 1.74-2.756 3.866-5.213 2.126-2.456 4.696-6.776 5.711-9.599 1.015-2.823 2.612-5.955 3.548-6.96.936-1.005 2.606-3.811 3.711-6.236s2.944-5.256 4.086-6.29c1.143-1.034 2.078-2.32 2.078-2.858 0-.537.821-1.705 1.824-2.595 2.05-1.818 5.176-7.718 5.176-9.771 0-.74.363-1.346.808-1.346.765 0 4.192-6.861 4.192-8.393 0-.397 2.048-3.651 4.55-7.232 2.503-3.581 4.986-7.492 5.517-8.693 1.674-3.78 5.41-10.02 8.73-14.582 1.762-2.42 3.203-4.929 3.203-5.576 0-.646 1.125-2.232 2.5-3.524 1.375-1.292 2.5-2.885 2.5-3.539 0-.655.844-2.264 1.876-3.576 1.031-1.312 2.564-4.41 3.405-6.885.841-2.475 2.078-5.85 2.749-7.5.67-1.65 1.579-3.9 2.019-5 2.452-6.129 3.911-26.94 2.02-28.831-.588-.588-1.069-2.785-1.069-4.883 0-2.097-.412-4.595-.916-5.55-3.212-6.09-4.084-9.647-4.084-16.669 0-5.859.348-7.763 1.5-8.205.825-.317 1.5-1.334 1.5-2.261 0-1.936 7.947-10.101 9.831-10.101.691 0 2.47-1.125 3.952-2.5 1.483-1.375 3.222-2.5 3.864-2.5.642 0 3.168-2.225 5.613-4.944 2.504-2.786 5.709-5.247 7.342-5.638 1.594-.381 3.438-1.118 4.098-1.637 1.432-1.125 13.855-.478 20.594 1.072 2.637.607 7.499 2.688 10.804 4.625 3.305 1.937 6.633 3.522 7.397 3.522.763 0 1.688.486 2.055 1.081.368.595 1.697.823 2.954.507 1.257-.315 4.18.095 6.496.912 3.938 1.389 8.174 1.187 10.5-.502.55-.399 3.025-.727 5.5-.73 4.461-.004 15.728-3.1 21.5-5.908 1.65-.803 5.7-2.9 9-4.66 6.764-3.607 12.261-5.7 14.975-5.7 1.007 0 4.125-1.066 6.929-2.369 4.483-2.084 10.231-3.709 27.596-7.8 6.408-1.51 11.347-3.111 12.45-4.035.523-.438 1.899-.796 3.059-.796 1.16 0 2.982-.661 4.05-1.468 1.067-.808 3.178-1.483 4.691-1.5 1.513-.018 2.75-.482 2.75-1.032s1.589-1 3.531-1c2.217 0 3.746-.559 4.107-1.5.317-.825 1.436-1.5 2.487-1.5 2.067 0 11.542-4.652 12.443-6.109.302-.49 1.261-.891 2.129-.891 2.485 0 10.647-8.05 12.303-12.135.825-2.034 1.838-4.036 2.25-4.449.412-.412.75-1.998.75-3.524s.489-3.076 1.087-3.446c.632-.39.784-1.568.363-2.809-.398-1.175-1.073-5.962-1.499-10.637-.426-4.675-1.303-10.75-1.949-13.5-.645-2.75-1.4-7.475-1.676-10.5-.276-3.025-.912-5.927-1.414-6.45-.502-.522-.912-3.059-.912-5.636s-.672-5.974-1.494-7.55c-.821-1.575-1.496-4.525-1.5-6.555-.003-2.03-.456-3.969-1.006-4.309-.55-.34-1-3.49-1-7s-.45-6.66-1-7c-.55-.34-1.014-2.054-1.032-3.809-.017-1.755-.692-4.065-1.5-5.132-.807-1.068-1.468-3.854-1.468-6.191 0-2.338-.45-4.528-1-4.868-.55-.34-1-3.066-1-6.059 0-2.993-.45-5.441-1-5.441s-1.014-2.587-1.032-5.75c-.019-3.462-.616-6.522-1.5-7.691-.812-1.074-1.468-4.063-1.468-6.691 0-2.613-.45-5.028-1-5.368-.55-.34-1-1.885-1-3.435 0-3.432-4.645-14.259-6.592-15.365-.774-.44-1.408-1.586-1.408-2.547 0-2.109-6.981-9.153-9.072-9.153-.818 0-2.973-1.575-4.789-3.5-1.816-1.925-3.745-3.5-4.287-3.5-2.785 0-13.493-9.453-15.506-13.688-2.2-4.629-.679-23.003 2.178-26.312.712-.825 1.523-4.2 1.802-7.5.279-3.3.82-7.457 1.202-9.238.931-4.334 12.646-16.262 15.973-16.262 1.31 0 2.659-.45 2.999-1 .34-.55 1.535-1 2.655-1 1.12 0 3.231-.629 4.691-1.398 1.46-.768 4.679-1.983 7.154-2.699 2.475-.716 6.179-2.337 8.23-3.603 2.052-1.265 4.176-2.3 4.72-2.3 3.511 0 12.458-7.074 15.178-12 1.062-1.925 3.044-5.483 4.402-7.907 1.359-2.424 2.474-4.899 2.48-5.5.005-.601 1.58-3.069 3.5-5.484 1.919-2.415 3.49-5.201 3.49-6.191 0-.99.45-2.078 1-2.418.55-.34 1-1.491 1-2.559s.42-1.941.933-1.941c.513 0 1.249-1.013 1.636-2.25.388-1.237 1.689-3.428 2.891-4.867 1.203-1.44 2.804-4.14 3.559-6 .754-1.861 2.408-4.297 3.676-5.415 1.268-1.117 2.305-2.525 2.305-3.127 0-.603.67-1.652 1.49-2.333.819-.68 3.312-4.813 5.54-9.186 2.228-4.372 6.028-10.377 8.446-13.345 2.417-2.968 5.34-7.327 6.495-9.686 4.243-8.669 5.887-11.343 8.43-13.715 1.429-1.334 2.599-2.867 2.599-3.408 0-1.279 13.598-14.668 14.897-14.668.546 0 1.162 2.137 1.368 4.75.206 2.612.377-4.925.38-16.75.003-11.825-.167-19.587-.377-17.25-.441 4.897-2.064 5.481-4.865 1.75-1.033-1.375-2.692-2.5-3.688-2.5s-2.817-1.086-4.047-2.414c-2.338-2.522-11.111-7.586-13.143-7.586-.647 0-2.233-1.125-3.525-2.5-1.292-1.375-2.988-2.5-3.769-2.5-.781 0-4.11-2.587-7.398-5.75-3.288-3.163-6.571-5.975-7.295-6.25-.724-.275-4.854-3.947-9.177-8.159-13.207-12.868-16.651-15.939-19.562-17.445-1.54-.796-2.799-1.886-2.799-2.422 0-.536-.562-.991-1.25-1.011-.687-.021-4.548-3.171-8.579-7-4.031-3.83-7.861-6.963-8.511-6.963-.649 0-2.394-1.125-3.877-2.5-1.482-1.375-3.278-2.517-3.989-2.538-.712-.021-2.869-2.05-4.794-4.51-1.925-2.46-4.4-4.746-5.5-5.08-1.1-.335-2.736-1.253-3.636-2.042-3.748-3.284-16.097-8.33-20.386-8.33-2.398 0-4.638-.45-4.978-1-.375-.608-7.78-1-18.868-1-14.498 0-18.649-.302-20.191-1.468-1.067-.808-2.728-1.483-3.691-1.5-.963-.018-1.75-.482-1.75-1.032s-.618-1-1.373-1c-1.929 0-7.627-6.923-7.627-9.267 0-1.069-1.013-3.212-2.25-4.762-5.374-6.732-9.855-13.471-11.284-16.971-.336-.825-1.029-2.281-1.539-3.236-.51-.955-.927-4.642-.927-8.193 0-7.131 2.193-12.157 6.55-15.012 1.348-.883 2.45-2.249 2.45-3.037 0-.787 1.125-2.556 2.5-3.931s2.5-3.14 2.5-3.923c0-.783.675-1.983 1.5-2.668s1.5-2.09 1.5-3.122c0-1.033.45-1.878 1-1.878s1-.624 1-1.386c0-.762.672-2.674 1.494-4.25.857-1.644 1.496-5.527 1.5-9.114.003-3.496.447-6.25 1.006-6.25 1.262 0 1.314-4.279.068-5.55-.93-.948-1.8-11.188-2.531-29.791-.212-5.413-.645-10.1-.962-10.417-.316-.316-.575-3.374-.575-6.794 0-3.572-.636-7.439-1.494-9.084-.853-1.635-1.496-5.52-1.5-9.055-.003-3.405-.456-6.469-1.006-6.809-.55-.34-1-2.365-1-4.5s-.45-4.16-1-4.5c-.55-.34-1.014-2.054-1.032-3.809-.017-1.755-.692-4.065-1.5-5.132-.807-1.068-1.468-3.854-1.468-6.191 0-2.338-.45-4.528-1-4.868-.55-.34-1.016-3.629-1.035-7.309-.021-3.904-.631-7.732-1.465-9.191-.786-1.375-1.445-4.161-1.465-6.191-.019-2.03-.485-3.969-1.035-4.309-.55-.34-1-2.616-1-5.059s-.45-4.441-1-4.441-1-.685-1-1.522c0-1.887-7.794-10.478-9.505-10.478-.688 0-1.81-.675-2.495-1.5s-2.09-1.5-3.122-1.5c-1.033 0-1.878-.45-1.878-1s-.81-1-1.8-1-2.361-.562-3.048-1.25c-2.437-2.442-80.615-4.908-84.791-2.675-1.498.802-6.885.953-18 .506-19.757-.794-19.543-.796-32.861.287-9.851.801-17.211 2.51-19.148 4.447-.377.377-1.398.693-2.269.702-.87.01-2.708 1.204-4.083 2.654s-3.883 3.215-5.573 3.922c-1.691.708-6.171 4.801-9.958 9.097-9.083 10.306-10.131 11.31-11.805 11.31-.78 0-1.979.675-2.664 1.5-1.652 1.99-10.941 2.012-13.559.032-1.067-.808-2.729-1.483-3.691-1.5-.962-.018-1.75-.482-1.75-1.032s-1.035-1-2.3-1-2.728-.385-3.25-.855c-1.319-1.188-10.83-4.129-13.638-4.218-1.272-.04-3.662-.934-5.312-1.985-1.65-1.052-3.969-2.341-5.154-2.866-2.756-1.22-6.016-4.724-7.967-8.563-2.368-4.659-3.516-11.919-3.954-25.009-.228-6.838-.836-12.141-1.413-12.333-.557-.186-1.012-1.391-1.012-2.678s-1.125-3.677-2.5-5.311-2.5-3.453-2.5-4.041c0-1.483-20.784-22.139-22.285-22.149-.668-.004-3.2-2.029-5.627-4.5-2.427-2.47-4.923-4.492-5.547-4.492-.624 0-2.893-1.8-5.041-4-2.148-2.2-4.496-4-5.218-4-.722 0-5.609-4.275-10.859-9.5-5.251-5.225-9.874-9.5-10.275-9.5-.401 0-4.086-3.16-8.189-7.023-4.102-3.863-8.809-7.752-10.459-8.643-1.65-.892-4.049-2.794-5.331-4.227-1.283-1.434-5.19-5.757-8.684-9.607-3.494-3.85-8.24-9.137-10.546-11.75L632.745 7h-18.397c-18.122 0-18.412.034-19.377 2.25M.425 530c0 11.825.144 16.663.321 10.75.177-5.913.177-15.587 0-21.5S.425 518.175.425 530" fill="undefined" fill-rule="evenodd"/></svg>